<svg width="53" height="29" viewBox="0 0 53 29" fill="none" xmlns="http://www.w3.org/2000/svg">
<g id="Group 13">
<path id="TOPIK" fill-rule="evenodd" clip-rule="evenodd" d="M15.3626 5.91628C15.3626 5.09786 15.5056 4.35587 15.7915 3.69028C16.0775 3.0247 16.4793 2.4528 16.997 1.97456C17.5146 1.49633 18.1161 1.12656 18.8014 0.865258C19.4867 0.603955 20.2287 0.473305 21.0274 0.473305C21.8459 0.473305 22.5977 0.603955 23.283 0.865258C23.9683 1.12656 24.5673 1.49633 25.0801 1.97456C25.5928 2.4528 25.9897 3.0247 26.2707 3.69028C26.5518 4.35587 26.6923 5.09786 26.6923 5.91628C26.6923 6.72484 26.5542 7.4693 26.2781 8.14968C26.002 8.83005 25.6101 9.41921 25.1023 9.91716C24.5945 10.4151 23.9954 10.7997 23.3052 11.0708C22.615 11.342 21.8557 11.4776 21.0274 11.4776C20.1992 11.4776 19.4399 11.342 18.7497 11.0708C18.0594 10.7997 17.4604 10.4151 16.9526 9.91716C16.4448 9.41921 16.0528 8.83005 15.7767 8.14968C15.5006 7.4693 15.3626 6.72484 15.3626 5.91628ZM6.19237 3.29833V0.739537H14.8597V3.29833H11.9607V11.093H9.09134V3.29833H6.19237ZM19.112 7.96479C18.6437 7.43726 18.4095 6.75443 18.4095 5.91628C18.4095 5.06828 18.6437 4.38298 19.112 3.86037C19.5804 3.33777 20.2189 3.07647 21.0274 3.07647C21.8656 3.07647 22.5139 3.33777 22.9724 3.86037C23.4309 4.38298 23.6602 5.06828 23.6602 5.91628C23.6602 6.75443 23.4235 7.43726 22.9502 7.96479C22.4769 8.49233 21.836 8.7561 21.0274 8.7561C20.2189 8.7561 19.5804 8.49233 19.112 7.96479ZM28.2305 0.739537H32.0465C33.4566 0.739537 34.5067 1.04768 35.1969 1.66396C35.8872 2.28024 36.2323 3.12576 36.2323 4.20056C36.2323 5.27536 35.8872 6.12088 35.1969 6.73716C34.5067 7.35345 33.4566 7.66158 32.0465 7.66158H31.0999V11.093H28.2305V0.739537ZM31.0999 3.06168H32.0465C32.51 3.06168 32.8649 3.15782 33.1114 3.3501C33.358 3.54238 33.4812 3.82586 33.4812 4.20056C33.4812 4.5654 33.358 4.84889 33.1114 5.05103C32.8649 5.25317 32.51 5.35423 32.0465 5.35423H31.0999V3.06168ZM37.7557 0.739537H40.6843V11.093H37.7557V0.739537ZM45.7871 0.739537H42.7993V11.093H45.7871V6.72977L49.2333 11.093H52.7091L48.3754 5.59089L52.4873 0.739537H49.1298L45.7871 4.70344V0.739537Z" fill="#4132C9"/>
<g id="Group 8">
<g id="Group 3">
<path id="Path 3" fill-rule="evenodd" clip-rule="evenodd" d="M1.9575 26.7053C0.579044 25.4816 0.352521 24.3305 0.352521 24.3305C0.352521 24.3305 -0.352521 21.5698 0.352521 21.5698C1.05756 21.5698 1.47064 23.4985 1.9575 24.3305C2.44436 25.1624 3.02374 25.509 3.02374 25.509C3.02374 25.509 3.33595 27.929 1.9575 26.7053Z" fill="#AFFFA9"/>
<mask id="mask0" mask-type="alpha" maskUnits="userSpaceOnUse" x="0" y="21" width="4" height="7">
<path id="Path 3_2" fill-rule="evenodd" clip-rule="evenodd" d="M1.9575 26.7053C0.579044 25.4816 0.352521 24.3305 0.352521 24.3305C0.352521 24.3305 -0.352521 21.5698 0.352521 21.5698C1.05756 21.5698 1.47064 23.4985 1.9575 24.3305C2.44436 25.1624 3.02374 25.509 3.02374 25.509C3.02374 25.509 3.33595 27.929 1.9575 26.7053Z" fill="white"/>
</mask>
<g mask="url(#mask0)">
<rect id="Rectangle" x="-1.02713" y="21.2435" width="2.39664" height="1.95759" fill="#C8FF6E"/>
<path id="Rectangle Copy 8" fill-rule="evenodd" clip-rule="evenodd" d="M2.14516 23.5261L3.26825 24.6889L-0.0908856 27.3169L-1.21398 26.1541L2.14516 23.5261Z" fill="#C8FF6E"/>
<path id="Rectangle_2" fill-rule="evenodd" clip-rule="evenodd" d="M-1.26559 22.3011C-1.26559 22.3011 -0.0490549 23.0983 0.489263 22.7977C1.02758 22.4971 2.32061 22.0754 2.32061 22.0754L2.41614 23.305L-1.17006 23.5307L-1.26559 22.3011Z" fill="#393939"/>
<path id="Rectangle Copy" fill-rule="evenodd" clip-rule="evenodd" d="M-0.946732 25.3743L2.13475 23.7079L2.48743 24.2362C2.48743 24.2362 1.55092 24.6761 1.02713 24.9593C0.503344 25.2426 -0.594057 25.9026 -0.594057 25.9026L-0.946732 25.3743Z" fill="#393939"/>
<path id="Rectangle Copy 2" fill-rule="evenodd" clip-rule="evenodd" d="M0.613489 26.9903C0.613489 26.9903 1.34811 26.01 1.71189 25.5756C2.07567 25.1411 2.77699 24.4063 2.77699 24.4063L3.32386 24.7772C3.32386 24.7772 2.31525 25.4558 1.94122 25.9025C1.56719 26.3493 1.16036 27.3611 1.16036 27.3611L0.613489 26.9903Z" fill="#393939"/>
</g>
</g>
<g id="Path 6">
<path id="Path 8" d="M11.1172 19.2982C11.1172 19.2982 11.4623 19.146 11.7942 19.3927C12.1262 19.6394 12.2553 19.9399 12.2553 19.9399" stroke="#FF3535"/>
<path id="Path 5" fill-rule="evenodd" clip-rule="evenodd" d="M6.1628 25.2062C6.1628 25.2062 6.28133 21.9726 6.40217 20.7144C6.523 19.4563 6.5671 18.5271 7.12126 18.0332C7.67542 17.5392 8.15489 17.2558 9.04621 17.2558C9.93754 17.2558 11.3534 18.2791 11.3534 18.8628C11.3534 19.4466 10.9665 20.3189 10.0752 20.3189C9.18386 20.3189 8.67474 20.5296 8.67474 22.1479C8.67474 22.8499 8.67474 24.8847 8.67474 24.8847L6.1628 25.2062Z" fill="#AFFFA9"/>
<mask id="mask1" mask-type="alpha" maskUnits="userSpaceOnUse" x="6" y="17" width="6" height="9">
<path id="Path 5_2" fill-rule="evenodd" clip-rule="evenodd" d="M6.1628 25.2062C6.1628 25.2062 6.28133 21.9726 6.40217 20.7144C6.523 19.4563 6.5671 18.5271 7.12126 18.0332C7.67542 17.5392 8.15489 17.2558 9.04621 17.2558C9.93754 17.2558 11.3534 18.2791 11.3534 18.8628C11.3534 19.4466 10.9665 20.3189 10.0752 20.3189C9.18386 20.3189 8.67474 20.5296 8.67474 22.1479C8.67474 22.8499 8.67474 24.8847 8.67474 24.8847L6.1628 25.2062Z" fill="white"/>
</mask>
<g mask="url(#mask1)">
<rect id="Rectangle_3" x="6.1628" y="23.1607" width="1.69175" height="1.19322" fill="#C8FF6E"/>
<path id="Rectangle Copy 7" fill-rule="evenodd" clip-rule="evenodd" d="M8.64 16.6199L9.48247 19.59L8.13628 20.6977L5.80028 18.8992L8.64 16.6199Z" fill="#C8FF6E"/>
<g id="Group 5">
<path id="Rectangle_4" fill-rule="evenodd" clip-rule="evenodd" d="M5.79306 18.5583C5.79306 18.5583 6.88302 18.7639 7.49203 19.2401C8.10104 19.7163 9.38809 21.0367 9.38809 21.0367L8.978 22.0804C8.978 22.0804 7.81001 20.6001 7.19114 20.1162C6.57227 19.6323 5.59598 19.4359 5.59598 19.4359L5.79306 18.5583Z" fill="#393939"/>
<path id="Rectangle_5" fill-rule="evenodd" clip-rule="evenodd" d="M5.67674 22.9903C5.67674 22.9903 6.208 22.495 6.95564 22.495C7.70328 22.495 9.25803 22.5682 9.25803 22.5682V23.591C9.25803 23.591 7.83854 23.3083 7.11878 23.3083C6.39902 23.3083 5.63286 23.591 5.63286 23.591L5.67674 22.9903Z" fill="#393939"/>
<path id="Rectangle_6" fill-rule="evenodd" clip-rule="evenodd" d="M8.55085 16.2423L9.48885 15.9124C9.48885 15.9124 9.06835 16.7448 9.24419 17.7397C9.42002 18.7345 10.3659 20.8743 10.3659 20.8743L9.42786 21.2042C9.42786 21.2042 9.44868 19.5329 8.99977 18.7288C8.55085 17.9246 8.55085 16.2423 8.55085 16.2423Z" fill="#393939"/>
</g>
<path id="Path 7" fill-rule="evenodd" clip-rule="evenodd" d="M7.61106 24.6949C7.61106 24.6949 7.57745 21.0108 7.85192 20.3334C8.12639 19.6559 8.43231 19.5566 9.42577 19.2631C10.4192 18.9695 11.4742 19.2631 11.4742 19.2631L8.33796 26.1066L7.61106 24.6949Z" fill="#FDFFBE"/>
</g>
</g>
<g id="Group 2 Copy">
<rect id="Rectangle_7" x="3.08139" y="22.186" width="9.24419" height="3.0814" rx="3.0814" fill="#AFFFA9"/>
<mask id="mask2" mask-type="alpha" maskUnits="userSpaceOnUse" x="3" y="22" width="10" height="4">
<rect id="Rectangle_8" x="3.08139" y="22.186" width="9.24419" height="3.0814" rx="3.0814" fill="white"/>
</mask>
<g mask="url(#mask2)">
<rect id="Rectangle_9" x="3.08139" y="22.186" width="1.02713" height="2.05426" fill="#C8FF6E"/>
<rect id="Rectangle Copy 11" x="6.50516" y="22.186" width="2.39664" height="2.05426" fill="#C8FF6E"/>
<rect id="Rectangle Copy 12" x="11.2984" y="22.186" width="1.02713" height="2.05426" fill="#C8FF6E"/>
<g id="Group 4 Copy">
<path id="Rectangle_10" fill-rule="evenodd" clip-rule="evenodd" d="M6.11365 21.424H6.75602C6.75602 21.424 6.61803 22.7854 6.61803 23.3361C6.61803 23.8867 6.91763 25.2674 6.91763 25.2674H6.27117C6.27117 25.2674 6.14115 23.9189 6.11365 23.2479C6.08615 22.5769 6.11365 21.424 6.11365 21.424Z" fill="#393939"/>
<path id="Rectangle Copy 4" fill-rule="evenodd" clip-rule="evenodd" d="M8.7762 21.424H9.42265C9.42265 21.424 9.18023 22.8042 9.18023 23.5084C9.18023 24.2126 9.42265 25.2674 9.42265 25.2674H8.7762C8.7762 25.2674 8.61764 23.9208 8.76523 23.3531C8.91282 22.7854 8.7762 21.424 8.7762 21.424Z" fill="#393939"/>
<path id="Rectangle Copy 5" fill-rule="evenodd" clip-rule="evenodd" d="M11.0298 21.424L11.717 21.2284L11.9277 25.2674H11.2812C11.2812 25.2674 11.3383 23.6582 11.2812 22.7854C11.2241 21.9126 11.0298 21.424 11.0298 21.424Z" fill="#393939"/>
<path id="Rectangle Copy 3" fill-rule="evenodd" clip-rule="evenodd" d="M3.91771 21.2284L4.4126 21.424C4.4126 21.424 4.2708 22.6698 4.2708 23.3457C4.2708 24.0217 4.4126 25.2674 4.4126 25.2674H3.76614L3.91771 21.2284Z" fill="#393939"/>
</g>
<rect id="Rectangle_11" x="2.39664" y="23.8979" width="10.6137" height="2.73902" fill="#FDFFBE"/>
</g>
</g>
<g id="Group 2">
<rect id="Rectangle_12" x="1.23256" y="24.6512" width="13.5581" height="3.0814" rx="3.0814" fill="#AFFFA9"/>
<mask id="mask3" mask-type="alpha" maskUnits="userSpaceOnUse" x="1" y="24" width="14" height="4">
<rect id="Rectangle_13" x="1.23256" y="24.6512" width="13.5581" height="3.0814" rx="3.0814" fill="white"/>
</mask>
<g mask="url(#mask3)">
<rect id="Rectangle_14" x="2.5553" y="24.343" width="2.64549" height="3.0814" fill="#C8FF6E"/>
<rect id="Rectangle Copy 9" x="8.50766" y="24.343" width="2.97618" height="3.0814" fill="#C8FF6E"/>
<rect id="Rectangle Copy 10" x="14.1293" y="24.343" width="0.661373" height="3.0814" fill="#C8FF6E"/>
<g id="Group 4">
<path id="Rectangle_15" fill-rule="evenodd" clip-rule="evenodd" d="M5.32517 24.0063H6.03998C6.03998 24.0063 5.58458 25.3366 5.58458 25.9795C5.58458 26.6224 6.03998 27.4978 6.03998 27.4978H5.32517C5.32517 27.4978 5.12918 26.6195 5.12918 25.9795C5.12918 25.3395 5.32517 24.0063 5.32517 24.0063Z" fill="#393939"/>
<path id="Rectangle Copy 4_2" fill-rule="evenodd" clip-rule="evenodd" d="M8.09507 24.0063H8.80988C8.80988 24.0063 8.4078 24.6083 8.60994 25.451C8.81209 26.2938 8.80988 27.4978 8.80988 27.4978H8.09507C8.09507 27.4978 8.49161 26.1762 8.00572 25.7066C7.51983 25.2369 8.09507 24.0063 8.09507 24.0063Z" fill="#393939"/>
<path id="Rectangle Copy 5_2" fill-rule="evenodd" clip-rule="evenodd" d="M11.5278 22.8023L11.5798 24.0063C11.5798 24.0063 11.5278 25.0414 11.5278 25.6918C11.5278 26.3423 11.5798 27.4978 11.5798 27.4978H10.8649C10.8649 27.4978 11.107 26.1493 11.107 25.451C11.107 24.7528 11.5278 22.8023 11.5278 22.8023Z" fill="#393939"/>
<path id="Rectangle Copy 6" fill-rule="evenodd" clip-rule="evenodd" d="M13.6348 24.0063H14.3496C14.3496 24.0063 14.0816 25.1197 14.0816 25.752C14.0816 26.3844 14.3496 27.4978 14.3496 27.4978H13.6348C13.6348 27.4978 13.4577 26.3392 13.4577 25.752C13.4577 25.1649 13.6348 24.0063 13.6348 24.0063Z" fill="#393939"/>
<path id="Rectangle Copy 3_2" fill-rule="evenodd" clip-rule="evenodd" d="M2.5553 24.0063L2.5553 23.7655C2.5553 23.7655 3.0937 25.1179 3.0937 25.752C3.0937 26.3861 3.27011 27.4978 3.27011 27.4978H2.5553C2.5553 27.4978 2.74406 26.969 2.74406 26.2938C2.74406 25.6186 2.5553 24.0063 2.5553 24.0063Z" fill="#393939"/>
</g>
<rect id="Rectangle_16" x="0.240494" y="26.5" width="15.5423" height="2.77326" fill="#FDFFBE"/>
</g>
</g>
<g id="Group 6">
<path id="Oval" fill-rule="evenodd" clip-rule="evenodd" d="M9.24418 19.1047C9.58454 19.1047 9.86046 18.8287 9.86046 18.4884C9.86046 18.148 9.58454 17.8721 9.24418 17.8721C8.90382 17.8721 8.6279 18.148 8.6279 18.4884C8.6279 18.8287 8.90382 19.1047 9.24418 19.1047Z" fill="white"/>
<path id="Oval_2" fill-rule="evenodd" clip-rule="evenodd" d="M9.55231 18.7965C9.72249 18.7965 9.86045 18.6585 9.86045 18.4884C9.86045 18.3182 9.72249 18.1802 9.55231 18.1802C9.38213 18.1802 9.24417 18.3182 9.24417 18.4884C9.24417 18.6585 9.38213 18.7965 9.55231 18.7965Z" fill="#635A5A"/>
<path id="Oval_3" fill-rule="evenodd" clip-rule="evenodd" d="M9.39824 18.4884C9.48333 18.4884 9.55231 18.4194 9.55231 18.3343C9.55231 18.2492 9.48333 18.1802 9.39824 18.1802C9.31315 18.1802 9.24417 18.2492 9.24417 18.3343C9.24417 18.4194 9.31315 18.4884 9.39824 18.4884Z" fill="white"/>
</g>
</g>
<path id="TIPS" fill-rule="evenodd" clip-rule="evenodd" d="M45.9572 25.2255C45.5874 24.9445 45.2152 24.5082 44.8405 23.9166L42.8733 25.3217C43.0902 25.8443 43.4279 26.3176 43.8865 26.7416C44.345 27.1656 44.8774 27.5008 45.4839 27.7474C46.0903 27.9939 46.7139 28.1171 47.3549 28.1171C48.1141 28.1171 48.8019 27.9939 49.4182 27.7474C50.0345 27.5008 50.525 27.1335 50.8899 26.6454C51.2547 26.1573 51.4371 25.5435 51.4371 24.804C51.4371 23.9264 51.1906 23.2337 50.6976 22.7259C50.2046 22.2181 49.5686 21.8261 48.7896 21.55C48.3853 21.4021 48.0007 21.2641 47.6359 21.1359C47.2711 21.0077 46.9777 20.8721 46.7559 20.7292C46.534 20.5862 46.4231 20.4112 46.4231 20.2041C46.4231 19.9872 46.5167 19.8171 46.7041 19.6938C46.8914 19.5706 47.138 19.5089 47.4436 19.5089C48.1536 19.5089 48.7255 19.8738 49.1593 20.6034L51.304 19.4054C51.1166 19.0406 50.8603 18.6831 50.5349 18.3331C50.2095 17.983 49.7953 17.6921 49.2925 17.4604C48.7896 17.2287 48.1782 17.1128 47.4584 17.1128C46.6893 17.1128 46.0065 17.2386 45.4099 17.49C44.8133 17.7414 44.345 18.094 44.0048 18.5475C43.6646 19.0011 43.4945 19.5286 43.4945 20.1301C43.4945 20.6626 43.5956 21.1162 43.7977 21.4909C43.9999 21.8656 44.2513 22.1787 44.552 22.4301C44.8528 22.6815 45.1683 22.8861 45.4986 23.0439C45.829 23.2017 46.1174 23.3299 46.3639 23.4285C46.7583 23.5862 47.1084 23.7243 47.414 23.8426C47.7197 23.9609 47.9613 24.094 48.1388 24.242C48.3163 24.3899 48.405 24.5871 48.405 24.8336C48.405 25.3759 48.0353 25.6471 47.2957 25.6471C46.7731 25.6471 46.3269 25.5066 45.9572 25.2255ZM19.1342 19.9379V17.3791H27.8016V19.9379H24.9026V27.7326H22.0332V19.9379H19.1342ZM28.8961 17.3791H31.8247V27.7326H28.8961V17.3791ZM37.7557 17.3791H33.9397V27.7326H36.8091V24.3011H37.7557C39.1658 24.3011 40.2159 23.993 40.9061 23.3767C41.5964 22.7604 41.9415 21.9149 41.9415 20.8401C41.9415 19.7653 41.5964 18.9198 40.9061 18.3035C40.2159 17.6872 39.1658 17.3791 37.7557 17.3791ZM37.7557 19.7012H36.8091V21.9938H37.7557C38.2192 21.9938 38.5741 21.8927 38.8207 21.6906C39.0672 21.4884 39.1904 21.2049 39.1904 20.8401C39.1904 20.4654 39.0672 20.1819 38.8207 19.9896C38.5741 19.7973 38.2192 19.7012 37.7557 19.7012Z" fill="#4132C9"/>
</g>
</svg>
